<svg width="263" height="280" viewBox="0 0 263 280" fill="none" xmlns="http://www.w3.org/2000/svg">
<path d="M241.544 4.24242L236.199 15.9091L224.575 21.2121L236.199 26.5576L241.544 38.1818L246.848 26.5576L258.514 21.2121L246.848 15.9091M199.12 16.9697L188.514 40.303L165.181 50.9091L188.514 61.5152L199.12 84.8485L209.726 61.5152L233.06 50.9091L209.726 40.303M241.544 63.6364L236.199 75.2606L224.575 80.6061L236.199 85.9091L241.544 97.5758L246.848 85.9091L258.514 80.6061L246.848 75.2606" fill="#A1679E"/>
<path d="M0 61.5638V77.9861C0 123.421 24.1955 163.163 60.2151 185.278V236.735H224.438V214.838C224.438 185.716 166.084 171.046 136.852 171.046C136.852 171.046 134.991 171.046 134.115 171.046C82.1114 171.046 38.3187 127.253 38.3187 77.9861V61.5638M136.852 61.5638C125.238 61.5638 114.099 66.1777 105.886 74.3904C97.6735 82.6031 93.0596 93.742 93.0596 105.357C93.0596 116.971 97.6735 128.11 105.886 136.323C114.099 144.535 125.238 149.149 136.852 149.149C148.467 149.149 159.606 144.535 167.819 136.323C176.031 128.11 180.645 116.971 180.645 105.357C180.645 93.742 176.031 82.6031 167.819 74.3904C159.606 66.1777 148.467 61.5638 136.852 61.5638Z" fill="#2DC8EA"/>
</svg>
