<svg width="40" height="40" viewBox="0 0 40 40" fill="none" xmlns="http://www.w3.org/2000/svg">
<path d="M31.1833 32.5C29.8 34.5666 28.3333 36.5833 26.1 36.6166C23.8667 36.6666 23.15 35.3 20.6167 35.3C18.0667 35.3 17.2833 36.5833 15.1667 36.6666C12.9833 36.75 11.3333 34.4666 9.93332 32.45C7.08332 28.3333 4.89999 20.75 7.83332 15.65C9.28332 13.1166 11.8833 11.5166 14.7 11.4666C16.8333 11.4333 18.8667 12.9166 20.1833 12.9166C21.4833 12.9166 23.95 11.1333 26.5333 11.4C27.6167 11.45 30.65 11.8333 32.6 14.7C32.45 14.8 28.9833 16.8333 29.0167 21.05C29.0667 26.0833 33.4333 27.7666 33.4833 27.7833C33.4333 27.9 32.7833 30.1833 31.1833 32.5ZM21.6667 5.83331C22.8833 4.44998 24.9 3.39998 26.5667 3.33331C26.7833 5.28331 26 7.24998 24.8333 8.64998C23.6833 10.0666 21.7833 11.1666 19.9167 11.0166C19.6667 9.09998 20.6 7.09998 21.6667 5.83331Z" fill="black"/>
</svg>
