<svg width="33" height="33" viewBox="0 0 33 33" fill="none" xmlns="http://www.w3.org/2000/svg">
<path d="M21.6456 28.8609L10.8228 25.0548V3.60761L21.6456 7.41363M31.5666 0C31.4583 0 31.3681 0 31.278 0L21.6456 3.78799L10.8228 0L0.649369 3.42723C0.27057 3.55349 0 3.87818 0 4.29305V31.5666C0 31.8058 0.0950217 32.0352 0.264161 32.2043C0.433301 32.3734 0.662703 32.4685 0.901902 32.4685C0.992092 32.4685 1.10032 32.4685 1.19051 32.4144L10.8228 28.6805L21.6456 32.4685L31.8191 29.0412C32.1979 28.8609 32.4685 28.5903 32.4685 28.1754V0.901902C32.4685 0.662703 32.3734 0.433301 32.2043 0.264161C32.0352 0.0950217 31.8058 0 31.5666 0Z" fill="#000"/>
</svg>
