<svg width="21" height="29" viewBox="0 0 21 29" fill="none" xmlns="http://www.w3.org/2000/svg">
<path d="M10.5 13.8125C9.58832 13.8125 8.71398 13.4503 8.06932 12.8057C7.42466 12.161 7.0625 11.2867 7.0625 10.375C7.0625 9.46332 7.42466 8.58898 8.06932 7.94432C8.71398 7.29966 9.58832 6.9375 10.5 6.9375C11.4117 6.9375 12.286 7.29966 12.9307 7.94432C13.5753 8.58898 13.9375 9.46332 13.9375 10.375C13.9375 10.8264 13.8486 11.2734 13.6758 11.6905C13.5031 12.1075 13.2499 12.4865 12.9307 12.8057C12.6115 13.1249 12.2325 13.3781 11.8155 13.5508C11.3984 13.7236 10.9514 13.8125 10.5 13.8125ZM10.5 0.75C7.94729 0.75 5.49913 1.76406 3.6941 3.5691C1.88906 5.37413 0.875 7.82229 0.875 10.375C0.875 17.5938 10.5 28.25 10.5 28.25C10.5 28.25 20.125 17.5938 20.125 10.375C20.125 7.82229 19.1109 5.37413 17.3059 3.5691C15.5009 1.76406 13.0527 0.75 10.5 0.75Z" fill="#000"/>
</svg>
