<svg width="33" height="35" viewBox="0 0 33 35" fill="none" xmlns="http://www.w3.org/2000/svg">
<rect width="33" height="35" rx="5" fill="white"/>
<path d="M27.68 22.8822C26.04 22.8822 24.4533 22.5933 22.9733 22.0733C22.5067 21.9 21.9867 22.03 21.6267 22.42L19.5333 25.2656C15.76 23.3156 12.2267 19.6322 10.3467 15.4L12.9467 13.0022C13.3067 12.5978 13.4133 12.0344 13.2667 11.5289C12.7733 9.92556 12.52 8.20667 12.52 6.43C12.52 5.65 11.92 5 11.2 5H6.58667C5.86667 5 5 5.34667 5 6.43C5 19.8489 15.3067 31 27.68 31C28.6267 31 29 30.09 29 29.2956V24.3122C29 23.5322 28.4 22.8822 27.68 22.8822Z" fill="black"/>
</svg>
