<svg width="47" height="50" viewBox="0 0 47 50" fill="none" xmlns="http://www.w3.org/2000/svg">
<path d="M34.075 9.30233C35.3215 9.30233 36.517 8.81229 37.3984 7.94003C38.2798 7.06777 38.775 5.88473 38.775 4.65116C38.775 3.4176 38.2798 2.23456 37.3984 1.36229C36.517 0.490032 35.3215 0 34.075 0C32.8285 0 31.633 0.490032 30.7516 1.36229C29.8702 2.23456 29.375 3.4176 29.375 4.65116C29.375 5.88473 29.8702 7.06777 30.7516 7.94003C31.633 8.81229 32.8285 9.30233 34.075 9.30233ZM25.615 41.6279L27.965 31.3953L32.9 36.0465V50H37.6V32.5581L32.665 27.907L34.075 20.9302C37.3415 24.6279 42.0415 26.7442 47 26.7442V22.093C42.864 22.1628 39.01 20.0233 36.895 16.5116L34.545 12.7907C33.699 11.3953 32.195 10.4651 30.55 10.4651C29.845 10.4651 29.375 10.6977 28.67 10.6977L16.45 15.814V26.7442H21.15V18.8372L25.38 17.2093L21.62 36.0465L10.105 33.7209L9.165 38.3721L25.615 41.6279ZM4.7 17.4419C4.07674 17.4419 3.47901 17.1968 3.0383 16.7607C2.59759 16.3246 2.35 15.7331 2.35 15.1163C2.35 14.4995 2.59759 13.908 3.0383 13.4718C3.47901 13.0357 4.07674 12.7907 4.7 12.7907H11.75V17.4419H4.7ZM7.05 8.13953C6.42674 8.13953 5.82901 7.89452 5.3883 7.45839C4.94759 7.02226 4.7 6.43074 4.7 5.81395C4.7 5.19717 4.94759 4.60565 5.3883 4.16952C5.82901 3.73339 6.42674 3.48837 7.05 3.48837H18.8V8.13953H7.05ZM2.35 26.7442C1.72674 26.7442 1.12901 26.4992 0.688299 26.063C0.247588 25.6269 0 25.0354 0 24.4186C0 23.8018 0.247588 23.2103 0.688299 22.7742C1.12901 22.338 1.72674 22.093 2.35 22.093H11.75V26.7442H2.35Z" fill="#000"/>
</svg>
