<svg width="236" height="234" viewBox="0 0 236 234" fill="none" xmlns="http://www.w3.org/2000/svg">
<path d="M162.25 53.625C167.466 53.625 172.468 51.5705 176.157 47.9136C179.845 44.2566 181.917 39.2967 181.917 34.125C181.917 28.9533 179.845 23.9934 176.157 20.3364C172.468 16.6795 167.466 14.625 162.25 14.625C157.034 14.625 152.032 16.6795 148.344 20.3364C144.655 23.9934 142.583 28.9533 142.583 34.125C142.583 39.2967 144.655 44.2566 148.344 47.9136C152.032 51.5705 157.034 53.625 162.25 53.625ZM126.85 189.15L136.683 146.25L157.333 165.75V224.25H177V151.125L156.35 131.625L162.25 102.375C175.918 117.878 195.585 126.75 216.333 126.75V107.25C199.027 107.542 182.9 98.5725 174.05 83.85L164.217 68.25C160.677 62.4 154.383 58.5 147.5 58.5C144.55 58.5 142.583 59.475 139.633 59.475L88.5001 80.925V126.75H108.167V93.6L125.867 86.775L110.133 165.75L61.9501 156L58.0168 175.5L126.85 189.15ZM39.3334 87.75C36.7255 87.75 34.2243 86.7228 32.3802 84.8943C30.5361 83.0658 29.5001 80.5859 29.5001 78C29.5001 75.4141 30.5361 72.9342 32.3802 71.1057C34.2243 69.2772 36.7255 68.25 39.3334 68.25H68.8334V87.75H39.3334ZM49.1667 48.75C46.5588 48.75 44.0576 47.7228 42.2135 45.8943C40.3694 44.0658 39.3334 41.5859 39.3334 39C39.3334 36.4141 40.3694 33.9342 42.2135 32.1057C44.0576 30.2772 46.5588 29.25 49.1667 29.25H98.3334V48.75H49.1667ZM29.5001 126.75C26.8921 126.75 24.391 125.723 22.5469 123.894C20.7028 122.066 19.6667 119.586 19.6667 117C19.6667 114.414 20.7028 111.934 22.5469 110.106C24.391 108.277 26.8921 107.25 29.5001 107.25H68.8334V126.75H29.5001Z" fill="#2DC8EA"/>
</svg>
