<svg width="36" height="36" viewBox="0 0 36 36" fill="none" xmlns="http://www.w3.org/2000/svg">
<path d="M17.97 0C20.3529 0 22.6383 0.925115 24.3233 2.57183C26.0083 4.21855 26.955 6.45197 26.955 8.78078C26.955 11.1096 26.0083 13.343 24.3233 14.9897C22.6383 16.6364 20.3529 17.5616 17.97 17.5616C15.587 17.5616 13.3016 16.6364 11.6166 14.9897C9.93161 13.343 8.98499 11.1096 8.98499 8.78078C8.98499 6.45197 9.93161 4.21855 11.6166 2.57183C13.3016 0.925115 15.587 0 17.97 0ZM17.97 21.952C27.8984 21.952 35.9399 25.8814 35.9399 30.7327V35.1231H0V30.7327C0 25.8814 8.04156 21.952 17.97 21.952Z" fill="#000"/>
</svg>
